<svg width="24" height="24" viewBox="0 0 24 24" fill="none" xmlns="http://www.w3.org/2000/svg">
<path d="M18 7.84752C18 6.28656 17.3679 4.78953 16.2426 3.68577C15.1174 2.582 13.5913 1.96191 12 1.96191C10.4087 1.96191 8.88258 2.582 7.75736 3.68577C6.63214 4.78953 6 6.28656 6 7.84752C6 14.7141 3 16.6759 3 16.6759H21C21 16.6759 18 14.7141 18 7.84752Z" stroke="#666666" stroke-width="2" stroke-linecap="round" stroke-linejoin="round"/>
<path d="M13.73 20.5996C13.5542 20.8969 13.3019 21.1437 12.9982 21.3152C12.6946 21.4868 12.3504 21.5771 12 21.5771C11.6496 21.5771 11.3054 21.4868 11.0018 21.3152C10.6982 21.1437 10.4458 20.8969 10.27 20.5996" stroke="#666666" stroke-width="2" stroke-linecap="round" stroke-linejoin="round"/>
</svg>
