<svg width="17" height="12" viewBox="0 0 17 12" fill="none" xmlns="http://www.w3.org/2000/svg">
<path d="M15 11.6943C14.7348 11.6943 14.4804 11.5788 14.2929 11.3732C14.1054 11.1676 14 10.8888 14 10.598V1.09631C14 0.805551 14.1054 0.5267 14.2929 0.321102C14.4804 0.115504 14.7348 0 15 0L16 0C16.2652 0 16.5196 0.115504 16.7071 0.321102C16.8946 0.5267 17 0.805551 17 1.09631V10.598C17 10.8888 16.8946 11.1676 16.7071 11.3732C16.5196 11.5788 16.2652 11.6943 16 11.6943H15ZM10.333 11.6943C10.0678 11.6943 9.81343 11.5788 9.62589 11.3732C9.43836 11.1676 9.333 10.8888 9.333 10.598V3.6551C9.333 3.36434 9.43836 3.08549 9.62589 2.87989C9.81343 2.67429 10.0678 2.55879 10.333 2.55879H11.333C11.5982 2.55879 11.8526 2.67429 12.0401 2.87989C12.2276 3.08549 12.333 3.36434 12.333 3.6551V10.598C12.333 10.8888 12.2276 11.1676 12.0401 11.3732C11.8526 11.5788 11.5982 11.6943 11.333 11.6943H10.333ZM5.666 11.6943C5.40078 11.6943 5.14643 11.5788 4.95889 11.3732C4.77136 11.1676 4.666 10.8888 4.666 10.598V6.21279C4.666 5.92203 4.77136 5.64318 4.95889 5.43758C5.14643 5.23199 5.40078 5.11648 5.666 5.11648H6.666C6.93122 5.11648 7.18557 5.23199 7.37311 5.43758C7.56064 5.64318 7.666 5.92203 7.666 6.21279V10.598C7.666 10.8888 7.56064 11.1676 7.37311 11.3732C7.18557 11.5788 6.93122 11.6943 6.666 11.6943H5.666ZM1 11.6943C0.734784 11.6943 0.48043 11.5788 0.292893 11.3732C0.105357 11.1676 0 10.8888 0 10.598V8.40541C0 8.11465 0.105357 7.8358 0.292893 7.63021C0.48043 7.42461 0.734784 7.3091 1 7.3091H2C2.26522 7.3091 2.51957 7.42461 2.70711 7.63021C2.89464 7.8358 3 8.11465 3 8.40541V10.598C3 10.8888 2.89464 11.1676 2.70711 11.3732C2.51957 11.5788 2.26522 11.6943 2 11.6943H1Z" fill="#1A1A1A"/>
</svg>
