<svg width="16" height="16" viewBox="0 0 16 16" fill="none" xmlns="http://www.w3.org/2000/svg">
<g clip-path="url(#clip0_1_3389)">
<path d="M11.7193 5.68896L9.15088 14.2504L16 5.68896H11.7193Z" fill="#7042F4"/>
<path d="M4.28072 5.68896H0L6.84912 14.2504L4.28072 5.68896Z" fill="#7042F4"/>
<path d="M15.8426 4.74512L12.4328 1.33528C12.3449 1.24737 12.2256 1.198 12.1013 1.198H10.3651L11.6952 4.74512H15.8426Z" fill="#7042F4"/>
<path d="M4.30478 4.74512L5.63494 1.198H3.89869C3.77438 1.198 3.65513 1.24737 3.56722 1.33528L0.15741 4.74512H4.30478Z" fill="#7042F4"/>
<path d="M10.7339 5.68896H5.26605L7.99999 14.8021L10.7339 5.68896Z" fill="#7042F4"/>
<path d="M5.31274 4.74512H10.6872L9.35706 1.198H6.64293L5.31274 4.74512Z" fill="#7042F4"/>
</g>
<defs>
<clipPath id="clip0_1_3389">
<rect width="16" height="16" fill="white"/>
</clipPath>
</defs>
</svg>
