<svg width="12" height="12" viewBox="0 0 12 12" fill="none" xmlns="http://www.w3.org/2000/svg">
<g clip-path="url(#clip0_1_3265)">
<path d="M7.75 1.50003C7.88132 1.36871 8.03722 1.26454 8.2088 1.19347C8.38038 1.1224 8.56428 1.08582 8.75 1.08582C8.93572 1.08582 9.11962 1.1224 9.2912 1.19347C9.46278 1.26454 9.61868 1.36871 9.75 1.50003C9.88132 1.63135 9.98549 1.78725 10.0566 1.95883C10.1276 2.13041 10.1642 2.31431 10.1642 2.50003C10.1642 2.68575 10.1276 2.86964 10.0566 3.04123C9.98549 3.21281 9.88132 3.36871 9.75 3.50003L3 10.25L0.25 11L1 8.25003L7.75 1.50003Z" stroke="#4285F4" stroke-width="1.5" stroke-linecap="round" stroke-linejoin="round"/>
</g>
<defs>
<clipPath id="clip0_1_3265">
<rect width="12" height="12" fill="white"/>
</clipPath>
</defs>
</svg>
