<svg width="24" height="24" viewBox="0 0 24 24" fill="none" xmlns="http://www.w3.org/2000/svg">
<g clip-path="url(#clip0_1_4006)">
<path d="M24 12C24 11.2461 23.9293 10.4915 23.7892 9.75881C23.726 9.42717 23.4356 9.1875 23.0985 9.1875H12.0469C11.6582 9.1875 11.3438 9.50198 11.3438 9.89062V14.1094C11.3438 14.498 11.6582 14.8125 12.0469 14.8125H17.7172C17.3639 15.5277 16.877 16.1483 16.3053 16.6704L20.2793 20.6445C22.566 18.4659 24 15.4003 24 12Z" fill="#4285F4"/>
<path d="M11.9999 5.625C13.3794 5.625 14.6916 6.06309 15.7943 6.89255C16.0731 7.10198 16.4666 7.07658 16.7137 6.8273L19.7144 3.82664C19.8538 3.68723 19.9286 3.49566 19.9197 3.29859C19.9108 3.10153 19.8201 2.9175 19.6691 2.79047C17.5219 0.990844 14.798 0 11.9999 0C7.88201 0 4.24408 2.09316 2.09351 5.27119L6.22076 9.39844C7.20541 7.1805 9.42082 5.625 11.9999 5.625Z" fill="#4285F4"/>
<path d="M11.9999 24C14.6841 24 17.1558 23.1 19.1531 21.6006L15.1045 17.552C14.1791 18.073 13.1214 18.375 11.9999 18.375C9.42082 18.375 7.20541 16.8195 6.22076 14.6016L2.09351 18.7288C4.24408 21.9068 7.88201 24 11.9999 24Z" fill="#4285F4"/>
<path d="M5.72738 13.0127C5.67352 12.6809 5.625 12.3467 5.625 12C5.625 11.6533 5.67352 11.3191 5.72738 10.9873L1.31531 6.5752C0.480562 8.20551 0 10.0461 0 12C0 13.9539 0.480563 15.7945 1.31536 17.4247L5.72738 13.0127Z" fill="#4285F4"/>
</g>
<defs>
<clipPath id="clip0_1_4006">
<rect width="24" height="24" fill="white"/>
</clipPath>
</defs>
</svg>
