<svg width="36" height="35" viewBox="0 0 36 35" fill="none" xmlns="http://www.w3.org/2000/svg">
<path fill-rule="evenodd" clip-rule="evenodd" d="M24.5492 1.3373C24.3539 0.619662 23.7398 0.0936018 22.9995 0.0110955C22.2591 -0.0714108 21.5436 0.306738 21.1952 0.96422C18.9785 5.14623 15.1296 8.2238 10.5643 9.46618C8.58213 10.0056 6.50475 10.5709 4.70655 11.0603C3.07257 11.5049 1.68408 12.5795 0.842143 14.0486C0.00229562 15.5188 -0.220478 17.2604 0.224184 18.8944L0.671082 20.5365C1.11574 22.1705 2.1903 23.559 3.65938 24.401C5.12966 25.2408 6.87119 25.4636 8.50518 25.0189L14.3629 23.4248C18.9282 22.1825 23.8059 22.8852 27.8361 25.3672C28.4697 25.7575 29.2781 25.7209 29.8745 25.2746C30.471 24.8283 30.7338 24.0636 30.5385 23.346C29.3766 19.0763 25.7111 5.60701 24.5492 1.3373Z" fill="#4285F4"/>
<path fill-rule="evenodd" clip-rule="evenodd" d="M34.188 9.21059L31.7247 9.88094C31.0448 10.066 30.6432 10.7679 30.8282 11.4478C31.0132 12.1276 31.7152 12.5292 32.395 12.3442L34.8583 11.6739C35.5382 11.4889 35.9398 10.7869 35.7548 10.1071C35.5698 9.4272 34.8678 9.02558 34.188 9.21059Z" fill="#4285F4"/>
<path fill-rule="evenodd" clip-rule="evenodd" d="M31.6946 18.2674L33.9112 19.5356C34.5228 19.8842 35.3029 19.6719 35.6535 19.0615C36.0021 18.4498 35.7898 17.6698 35.1794 17.3191L32.9628 16.0509C32.3512 15.7023 31.5711 15.9146 31.2205 16.525C30.8719 17.1367 31.0842 17.9167 31.6946 18.2674Z" fill="#4285F4"/>
<path fill-rule="evenodd" clip-rule="evenodd" d="M30.336 6.39807L31.6042 4.18155C31.9528 3.56989 31.7405 2.78985 31.13 2.43918C30.5184 2.0906 29.7383 2.30288 29.3876 2.91334L28.1194 5.12986C27.7709 5.74152 27.9831 6.52156 28.5936 6.87223C29.2053 7.22081 29.9853 7.00854 30.336 6.39807Z" fill="#4285F4"/>
<path fill-rule="evenodd" clip-rule="evenodd" d="M8.02803 26.8561L10.9633 33.2607C11.5692 34.5863 13.0467 35.2777 14.4524 34.8952L18.3001 33.8481C19.0111 33.6546 19.5728 33.1067 19.7807 32.3992C19.9907 31.693 19.8191 30.9266 19.3276 30.3778L17.836 28.7077C17.8136 28.6838 17.7962 28.6585 17.7799 28.6312L15.6803 24.8566C15.3885 24.9183 8.33794 26.8088 8.02803 26.8561Z" fill="#4285F4"/>
</svg>
