<svg width="24" height="22" viewBox="0 0 24 22" fill="none" xmlns="http://www.w3.org/2000/svg">
<path d="M0.586329 0C0.261443 0 0 0.262988 0 0.588021V9.31385C0 9.63899 0.262311 9.90022 0.586329 9.90022H10.4786C10.8036 9.90022 11.0666 9.63883 11.0666 9.31385V0.588021C11.0666 0.262903 10.8043 0 10.4786 0H0.586329ZM13.5201 0C13.1949 0 12.9337 0.262988 12.9337 0.588021V9.31385C12.9337 9.63899 13.1961 9.90022 13.5201 9.90022H23.4137C23.7389 9.90022 24 9.63883 24 9.31385V0.588021C24 0.262903 23.7377 0 23.4137 0H13.5201ZM0.586329 11.7673C0.261443 11.7673 0 12.0302 0 12.3553V21.0811C0 21.4063 0.262311 21.6675 0.586329 21.6675H10.4786C10.8036 21.6675 11.0666 21.4061 11.0666 21.0811V12.3553C11.0666 12.0302 10.8043 11.7673 10.4786 11.7673H0.586329ZM13.5201 11.7673C13.1949 11.7673 12.9337 12.0302 12.9337 12.3553V21.0811C12.9337 21.4063 13.1961 21.6675 13.5201 21.6675H23.4137C23.7389 21.6675 24 21.4061 24 21.0811V12.3553C24 12.0302 23.7377 11.7673 23.4137 11.7673H13.5201Z" fill="black"/>
</svg>
