<svg width="16" height="21" viewBox="0 0 16 21" fill="none" xmlns="http://www.w3.org/2000/svg">
<path d="M15.103 4.30481C14.5077 3.13093 13.6267 2.12557 12.5412 1.38114C11.4558 0.63671 10.2006 0.177105 8.89101 0.0445786C8.29861 -0.0148595 7.70176 -0.0148595 7.10936 0.0445786C5.79985 0.177192 4.54466 0.636784 3.45914 1.38112C2.37361 2.12547 1.49256 3.13068 0.89694 4.30441C0.147557 5.80203 -0.141898 7.48791 0.0650314 9.14971C0.271961 10.8115 0.96602 12.3749 2.05979 13.643L7.39344 20.1277C7.4671 20.2173 7.55969 20.2894 7.66457 20.339C7.76944 20.3885 7.884 20.4142 7.99999 20.4142C8.11598 20.4142 8.23053 20.3885 8.33541 20.339C8.44029 20.2894 8.53288 20.2173 8.60654 20.1277L13.9402 13.643C15.0339 12.375 15.728 10.8117 15.9349 9.14991C16.1419 7.48817 15.8524 5.80236 15.103 4.30481ZM7.99999 10.9919C7.37881 10.9919 6.77159 10.8077 6.2551 10.4626C5.73861 10.1175 5.33606 9.62694 5.09834 9.05305C4.86063 8.47916 4.79843 7.84767 4.91962 7.23843C5.0408 6.62919 5.33993 6.06956 5.77917 5.63033C6.2184 5.19109 6.77803 4.89196 7.38727 4.77078C7.99651 4.64959 8.628 4.71179 9.20189 4.9495C9.77578 5.18722 10.2663 5.58977 10.6114 6.10626C10.9565 6.62275 11.1407 7.22997 11.1407 7.85115C11.1397 8.68382 10.8085 9.48211 10.2197 10.0709C9.63095 10.6597 8.83266 10.9909 7.99999 10.9919Z" fill="#4285F4"/>
</svg>
