<svg width="16" height="13" viewBox="0 0 16 13" fill="none" xmlns="http://www.w3.org/2000/svg">
<path d="M7.77075 12.4895L5.67497 10.1735C5.64302 10.1391 5.61784 10.0978 5.60097 10.0524C5.58411 10.0069 5.57591 9.95812 5.57689 9.90904C5.57787 9.85996 5.58801 9.81162 5.60668 9.767C5.62535 9.72238 5.65216 9.68243 5.68545 9.6496C6.33267 9.04933 7.153 8.71995 8.00076 8.71995C8.84852 8.71995 9.66884 9.04933 10.3161 9.6496C10.3488 9.68268 10.3751 9.7228 10.3931 9.76747C10.4111 9.81213 10.4206 9.86039 10.4209 9.90923C10.4216 9.95829 10.4133 10.007 10.3964 10.0524C10.3794 10.0979 10.3543 10.139 10.3224 10.1735L8.22658 12.4895C8.19626 12.5232 8.16012 12.55 8.12028 12.5682C8.08043 12.5865 8.03766 12.5959 7.99447 12.5959C7.95127 12.5959 7.90851 12.5865 7.86866 12.5682C7.82882 12.55 7.79268 12.5232 7.76236 12.4895H7.77075ZM11.4541 8.43415C10.5094 7.4945 9.27947 6.97398 8.0039 6.97398C6.72833 6.97398 5.49842 7.4945 4.55373 8.43415C4.49206 8.49822 4.41001 8.53335 4.32506 8.53207C4.24011 8.53078 4.15897 8.49317 4.09894 8.42726L2.89073 7.0866C2.85882 7.05217 2.83349 7.01114 2.81619 6.96587C2.7989 6.92061 2.78999 6.87202 2.78999 6.82295C2.78999 6.77387 2.7989 6.72529 2.81619 6.68002C2.83349 6.63476 2.85882 6.59372 2.89073 6.55929C4.27873 5.14342 6.10432 4.35631 8.00023 4.35631C9.89615 4.35631 11.7217 5.14342 13.1097 6.55929C13.142 6.59333 13.1677 6.63407 13.1855 6.67913C13.2032 6.72419 13.2126 6.77267 13.2131 6.82174C13.2136 6.87082 13.2052 6.91951 13.1883 6.96498C13.1715 7.01045 13.1465 7.0518 13.115 7.0866L11.9089 8.42726C11.8488 8.49317 11.7677 8.53078 11.6827 8.53207C11.5978 8.53335 11.5157 8.49822 11.4541 8.43415ZM14.2415 5.3473C12.5585 3.59302 10.3251 2.61476 8.00285 2.61476C5.68062 2.61476 3.44718 3.59302 1.76425 5.3473C1.70366 5.41282 1.62197 5.44956 1.53686 5.44956C1.45175 5.44956 1.37006 5.41282 1.30947 5.3473L0.099155 4.00319C0.0677247 3.96882 0.0427878 3.928 0.0257731 3.88305C0.00875828 3.83811 0 3.78992 0 3.74126C0 3.6926 0.00875828 3.64441 0.0257731 3.59946C0.0427878 3.55452 0.0677247 3.51369 0.099155 3.47933C2.22536 1.24647 5.05593 0 8.00023 0C10.9445 0 13.7751 1.24647 15.9013 3.47933C15.9645 3.54888 16 3.64307 16 3.74126C16 3.83945 15.9645 3.93364 15.9013 4.00319L14.6952 5.3427C14.6349 5.40844 14.5533 5.44533 14.4683 5.44533C14.3833 5.44533 14.3017 5.40844 14.2415 5.3427V5.3473Z" fill="#1A1A1A"/>
</svg>
