<svg width="20" height="20" viewBox="0 0 20 20" fill="none" xmlns="http://www.w3.org/2000/svg">
<path d="M20 20.0001V12.6751C20 9.07505 19.225 6.32504 15.025 6.32504C13 6.32504 11.65 7.42504 11.1 8.47504H11.05V6.65004H7.07501V20.0001H11.225V13.3751C11.225 11.6251 11.55 9.95005 13.7 9.95005C15.825 9.95005 15.85 11.9251 15.85 13.4751V19.9751H20V20.0001Z" fill="#4285F4"/>
<path d="M0.325013 6.65005H4.47502V20.0001H0.325013V6.65005Z" fill="#4285F4"/>
<path d="M2.40001 0C1.075 0 0 1.075 0 2.40001C0 3.72501 1.075 4.82501 2.40001 4.82501C3.72501 4.82501 4.80001 3.72501 4.80001 2.40001C4.80001 1.075 3.72501 0 2.40001 0Z" fill="#4285F4"/>
</svg>
