<svg width="11" height="14" viewBox="0 0 11 14" fill="none" xmlns="http://www.w3.org/2000/svg">
<path d="M8.06066 5.69742e-05L1.83844 5.72481e-05C1.55562 5.71112e-05 1.34349 0.212178 1.34349 0.495006L1.34349 2.75763C1.34349 3.11116 1.62632 3.25258 1.83844 3.25258H2.33339L2.33339 5.37379C1.69703 5.79803 6.1991e-05 7.00005 6.19277e-05 8.5556C6.17908e-05 8.83843 0.212183 9.05055 0.495011 9.05055L4.52531 9.05055L4.52531 13.5051C4.52531 13.7879 4.73743 14 5.02026 14C5.30309 14 5.51521 13.7172 5.51521 13.5051L5.51521 9.05055L9.5455 9.05055C9.93439 9.0152 10.0758 8.73237 10.0405 8.5556C10.0405 7.00005 8.34348 5.79803 7.70712 5.37379V3.25258H8.20207C8.4849 3.25258 8.69702 3.04046 8.69702 2.75763L8.69702 0.495006C8.55561 0.212178 8.34349 5.69742e-05 8.06066 5.69742e-05ZM7.56571 2.26268L7.07076 2.26268C6.78793 2.26268 6.57581 2.4748 6.57581 2.75763L6.61116 5.69197C6.61116 5.90409 6.68187 6.0455 6.85864 6.15156C7.35359 6.43439 8.4849 7.21217 8.83843 8.13136L1.06067 8.13136C1.37885 7.24752 2.54551 6.43439 3.04046 6.15156C3.18188 6.08086 3.28794 5.90409 3.28794 5.69197L3.28794 2.79298C3.28794 2.36874 3.00511 2.29803 2.79299 2.29803L2.29804 2.29803L2.33339 0.989954L7.56571 0.989955L7.56571 2.26268Z" fill="black"/>
</svg>
